<?xml version="1.0" encoding="UTF-8"?>
<svg xmlns="http://www.w3.org/2000/svg" viewBox="0 0 460.5 228.76"><defs><style>.c{fill:none;}.d{fill:#002d58;}</style></defs><g id="a"><g><g><path class="d" d="M168.69,179.36l-6.39,17.58h2.44l1.42-3.93h7.71l1.42,3.93h2.44l-6.37-17.58h-2.66Zm-1.88,11.77l3.2-8.93,3.2,8.93h-6.39Z"/><path class="d" d="M182.78,185.29v-2.26h-2.31v13.9h2.31v-7.56c0-3.22,1.67-4.21,3.88-4.21h.61v-2.38c-2.21,0-3.7,.96-4.49,2.51Z"/><path class="d" d="M200.65,185.57c-.81-1.45-2.59-2.76-5.17-2.76-3.73,0-6.6,2.79-6.6,7.13s2.87,7.23,6.57,7.23c2.56,0,4.36-1.32,5.2-2.82v2.59h2.33v-13.9h-2.33v2.54Zm-4.72,9.56c-2.54,0-4.69-1.93-4.69-5.2s2.16-5.12,4.69-5.12,4.72,1.93,4.72,5.15-2.18,5.17-4.72,5.17Z"/><path class="d" d="M214.63,182.81c-2.46,0-4.31,1.27-5.2,2.82v-7.46h-2.31v18.77h2.31v-2.56c.86,1.52,2.66,2.79,5.2,2.79,3.73,0,6.6-2.92,6.6-7.23s-2.84-7.13-6.6-7.13Zm-.48,12.33c-2.51,0-4.72-1.9-4.72-5.17s2.21-5.15,4.72-5.15,4.72,1.85,4.72,5.12-2.16,5.2-4.72,5.2Z"/><path class="d" d="M239.14,179.05c-4.97,0-8.88,3.73-8.88,9.03s3.91,9.03,8.88,9.03,8.88-3.73,8.88-9.03-3.88-9.03-8.88-9.03Zm0,16.06c-3.73,0-6.52-2.71-6.52-7.03s2.79-7.03,6.52-7.03,6.52,2.69,6.52,7.03-2.79,7.03-6.52,7.03Z"/><path class="d" d="M259.02,182.81c-2.54,0-4.36,1.32-5.2,2.79v-2.56h-2.31v20.5h2.31v-9.16c.86,1.42,2.66,2.79,5.2,2.79,3.73,0,6.6-2.92,6.6-7.23s-2.87-7.13-6.6-7.13Zm-.48,12.33c-2.51,0-4.72-1.9-4.72-5.17s2.21-5.15,4.72-5.15,4.72,1.85,4.72,5.12-2.16,5.2-4.72,5.2Z"/><path class="d" d="M275.04,182.81c-4.06,0-6.87,2.76-6.87,7.15s2.92,7.2,6.87,7.2c3.45,0,5.68-1.98,6.39-4.52h-2.49c-.51,1.5-1.83,2.56-3.91,2.56-2.36,0-4.34-1.55-4.52-4.36h11.11c.05-.48,.08-.89,.08-1.39,0-3.8-2.64-6.65-6.67-6.65Zm-4.49,6.16c.25-2.71,2.13-4.21,4.39-4.21,2.38,0,4.41,1.5,4.39,4.21h-8.78Z"/><path class="d" d="M291.82,182.78c-1.88,0-3.55,.79-4.46,2.23v-1.98h-2.31v13.9h2.31v-7.69c0-2.99,1.62-4.46,3.98-4.46s3.88,1.45,3.88,4.29v7.86h2.28v-8.19c0-3.98-2.46-5.96-5.68-5.96Z"/><path class="d" d="M317.92,190.44c0,3.25-1.72,4.64-4.34,4.64s-4.36-1.4-4.36-4.64v-11.19h-2.31v11.16c0,4.59,2.99,6.7,6.65,6.7s6.67-2.1,6.67-6.7v-11.16h-2.31v11.19Z"/><path class="d" d="M331.17,182.78c-1.88,0-3.55,.79-4.46,2.23v-1.98h-2.31v13.9h2.31v-7.69c0-2.99,1.62-4.46,3.98-4.46s3.88,1.45,3.88,4.29v7.86h2.28v-8.19c0-3.98-2.46-5.96-5.68-5.96Z"/><rect class="d" x="340.82" y="183.03" width="2.31" height="13.9"/><path class="d" d="M342.01,177.71c-.84,0-1.49,.65-1.49,1.49s.65,1.49,1.49,1.49c.8,0,1.45-.65,1.45-1.49s-.65-1.49-1.45-1.49Z"/><polygon class="d" points="352.43 194.8 348.1 183.03 345.61 183.03 351.06 196.94 353.75 196.94 359.21 183.03 356.75 183.03 352.43 194.8"/><path class="d" d="M367.19,182.81c-4.06,0-6.87,2.76-6.87,7.15s2.92,7.2,6.87,7.2c3.45,0,5.68-1.98,6.39-4.52h-2.49c-.51,1.5-1.83,2.56-3.91,2.56-2.36,0-4.34-1.55-4.52-4.36h11.11c.05-.48,.08-.89,.08-1.39,0-3.8-2.64-6.65-6.67-6.65Zm-4.49,6.16c.25-2.71,2.13-4.21,4.39-4.21,2.38,0,4.41,1.5,4.39,4.21h-8.78Z"/><path class="d" d="M379.51,185.29v-2.26h-2.31v13.9h2.31v-7.56c0-3.22,1.67-4.21,3.88-4.21h.61v-2.38c-2.21,0-3.7,.96-4.49,2.51Z"/><path class="d" d="M388.66,186.69c0-1.12,1.01-1.93,2.71-1.93,1.85,0,2.92,1.01,3.02,2.41h2.31c-.15-2.71-2.18-4.36-5.25-4.36s-5.1,1.75-5.1,3.88c0,5.17,8.22,3.37,8.22,6.47,0,1.14-1.01,2.05-2.84,2.05-1.95,0-3.15-1.01-3.27-2.36h-2.38c.15,2.54,2.44,4.31,5.68,4.31,3.07,0,5.07-1.72,5.07-4.01-.1-4.97-8.17-3.17-8.17-6.47Z"/><path class="d" d="M401.49,177.71c-.84,0-1.49,.65-1.49,1.49s.65,1.49,1.49,1.49c.8,0,1.45-.65,1.45-1.49s-.65-1.49-1.45-1.49Z"/><rect class="d" x="400.3" y="183.03" width="2.31" height="13.9"/><path class="d" d="M409.44,179.53h-2.31v3.5h-1.8v1.9h1.8v8.19c0,2.79,1.39,3.8,3.86,3.8h2.08v-1.95h-1.7c-1.42,0-1.93-.48-1.93-1.85v-8.19h3.63v-1.9h-3.63v-3.5Z"/><polygon class="d" points="426.29 183.04 421.98 194.3 417.62 183.04 415.05 183.04 420.66 196.78 417.92 203.48 420.3 203.48 428.67 183.04 426.29 183.04"/></g><g><path class="d" d="M408.18,167.89c-.8,0-1.42,.62-1.42,1.42s.62,1.42,1.42,1.42c.76,0,1.37-.62,1.37-1.42s-.62-1.42-1.37-1.42Z"/><path class="d" d="M358.07,149.25c.76,0,1.37-.62,1.37-1.42s-.62-1.42-1.37-1.42c-.8,0-1.42,.62-1.42,1.42s.62,1.42,1.42,1.42Z"/><path class="d" d="M354.16,149.25c.76,0,1.37-.62,1.37-1.42s-.62-1.42-1.37-1.42c-.8,0-1.42,.62-1.42,1.42s.62,1.42,1.42,1.42Z"/><path class="d" d="M377.72,165.56c1.72,0,3.22-.91,4.07-2.27,1.19,1.39,2.95,2.27,4.92,2.27h5.34v-7.86c0-3.26-2.65-5.91-5.91-5.91s-5.86,2.61-5.91,5.83v3.52c0,1.38-1.13,2.51-2.51,2.51h-6.08c-2.54,0-4.61-2.44-4.61-4.98s2.07-4.98,4.61-4.98h3.46v-1.9h-3.46c-3.79,0-6.88,3.09-6.88,6.88,0,1.96,.83,3.73,2.15,4.98h-7.75v-11.86h-4.62c-3.8,0-6.88,3.09-6.88,6.88s3.09,6.88,6.88,6.88h23.18Zm-20.84-1.9h-2.34c-2.54,0-4.61-2.44-4.61-4.98s2.07-4.98,4.61-4.98h2.34v9.96Zm32.89,0h-3.06c-2.32,0-4.2-1.88-4.2-4.2v-2.13c0-2,1.63-3.63,3.63-3.63s3.63,1.63,3.63,3.63v6.33Z"/><rect class="d" x="426.4" y="146.34" width="2.28" height="19.21"/><path class="d" d="M420.49,163.65h-4.16c-.19-4.44-1.94-8.26-4.8-10.32-2.51-1.81-5.62-2.17-8.98-1.04l.72,1.78c2.64-.89,5.03-.63,6.93,.73,2.28,1.64,3.68,5.1,3.85,8.85h-15.42c-.74,0-1.34-.6-1.34-1.34v-15.98h-2.28v15.6c0,1.99,1.62,3.62,3.62,3.62h24.13v-19.22h-2.28v17.31Z"/><path class="d" d="M229.49,149.25c.76,0,1.37-.62,1.37-1.42s-.62-1.42-1.37-1.42c-.8,0-1.42,.62-1.42,1.42s.62,1.42,1.42,1.42Z"/><path class="d" d="M216.71,149.25c.76,0,1.37-.62,1.37-1.42s-.62-1.42-1.37-1.42c-.8,0-1.42,.62-1.42,1.42s.62,1.42,1.42,1.42Z"/><path class="d" d="M212.8,149.25c.76,0,1.37-.62,1.37-1.42s-.62-1.42-1.37-1.42c-.8,0-1.42,.62-1.42,1.42s.62,1.42,1.42,1.42Z"/><path class="d" d="M172.59,149.25c.76,0,1.37-.62,1.37-1.42s-.62-1.42-1.37-1.42c-.8,0-1.42,.62-1.42,1.42s.62,1.42,1.42,1.42Z"/><path class="d" d="M168.68,149.25c.76,0,1.37-.62,1.37-1.42s-.62-1.42-1.37-1.42c-.8,0-1.42,.62-1.42,1.42s.62,1.42,1.42,1.42Z"/><path class="d" d="M192.81,165.56v-1.14c0-4.77-1.81-8.91-4.84-11.09-2.52-1.81-5.62-2.17-8.98-1.04l.72,1.78c2.64-.89,5.03-.63,6.93,.73,2.2,1.58,3.6,5.31,3.85,8.85h-16.69v-11.86h-4.62c-3.8,0-6.88,3.09-6.88,6.88s3.09,6.88,6.88,6.88h23.62Zm-21.28-1.9h-2.34c-2.54,0-4.61-2.44-4.61-4.98s2.07-4.98,4.61-4.98h2.34v9.96Z"/><rect class="d" x="264.03" y="146.34" width="2.28" height="19.22"/><path class="d" d="M222.82,165.56c2.28,0,4.26-.29,5.94-.86,1.68,.57,3.66,.86,5.94,.86h4c1.48,0,2.8-.69,3.67-1.76,1.08,1.45,2.8,2.4,4.74,2.4s3.67-.95,4.74-2.4c.88,1.06,2.19,1.76,3.68,1.76h4.86v-19.22h-2.28v17.32h-2.59c-1.38,0-2.51-1.13-2.51-2.51v-2.04c0-3.26-2.65-5.91-5.91-5.91s-5.91,2.65-5.91,5.91v2.04c0,1.38-1.13,2.51-2.51,2.51h-4c-1.18,0-2.27-.11-3.26-.3,.45-.32,3.24-2.18,3.24-6.14,0-2.99-2.66-5.42-5.92-5.42s-5.92,2.43-5.92,5.42c0,3.94,2.78,5.81,3.24,6.14-.99,.19-2.07,.3-3.26,.3h-5.62c-.74,0-1.34-.6-1.34-1.34v-9.61h-2.28v9.61c0,.74-.6,1.34-1.34,1.34h-5.84v-11.86h-4.21c-3.8,0-6.88,3.09-6.88,6.88s3.09,6.88,6.88,6.88h1.93v.07c0,1.79-1.14,3.27-2.83,3.85l.74,1.78c2.62-.89,4.37-2.86,4.37-5.63v-.07h5.84c1,0,1.91-.32,2.57-.89,.64,.53,1.47,.89,2.39,.89h5.62Zm-18.7-1.9h-1.93c-2.54,0-4.61-2.44-4.61-4.98s2.07-4.98,4.61-4.98h1.93v9.96Zm24.63-1.17c-2.34-1.12-3.65-2.98-3.65-5.27,0-1.74,1.64-3.52,3.65-3.52s3.65,1.79,3.65,3.52c0,2.29-1.31,4.15-3.65,5.27Zm21.99-3.38v1.56c0,2-1.63,3.63-3.63,3.63s-3.63-1.63-3.63-3.63v-1.93c0-2,1.63-3.63,3.63-3.63s3.63,1.63,3.63,3.63v.37Z"/><path class="d" d="M283.23,149.25c.76,0,1.37-.62,1.37-1.42s-.62-1.42-1.37-1.42c-.8,0-1.42,.62-1.42,1.42s.62,1.42,1.42,1.42Z"/><path class="d" d="M279.33,149.25c.76,0,1.37-.62,1.37-1.42s-.62-1.42-1.37-1.42c-.8,0-1.42,.62-1.42,1.42s.62,1.42,1.42,1.42Z"/><path class="d" d="M301.15,167.89c-.8,0-1.42,.62-1.42,1.42s.62,1.42,1.42,1.42c.76,0,1.37-.62,1.37-1.42s-.62-1.42-1.37-1.42Z"/><path class="d" d="M291.22,167.89c-.76,0-1.37,.62-1.37,1.42s.62,1.42,1.37,1.42c.8,0,1.42-.62,1.42-1.42s-.62-1.42-1.42-1.42Z"/><path class="d" d="M295.13,167.89c-.76,0-1.37,.62-1.37,1.42s.62,1.42,1.37,1.42c.8,0,1.42-.62,1.42-1.42s-.62-1.42-1.42-1.42Z"/><rect class="d" x="338.75" y="146.34" width="2.28" height="19.22"/><path class="d" d="M290.72,165.56c1.05,0,1.99-.33,2.68-.92,.69,.59,1.64,.92,2.68,.92h5.06c1.99,0,3.62-1.62,3.62-3.62v-9.24h-2.28v9.61c0,.74-.6,1.34-1.34,1.34h-5.06c-.85,0-1.55-.69-1.55-1.55v-9.41h-2.28v9.41c0,.85-.69,1.55-1.55,1.55h-6.29v-11.86h-4.62c-3.8,0-6.88,3.09-6.88,6.88s3.09,6.88,6.88,6.88h10.91Zm-8.56-1.9h-2.34c-2.54,0-4.61-2.44-4.61-4.98s2.07-4.98,4.61-4.98h2.34v9.96Z"/><path class="d" d="M335.12,165.56v-19.22h-2.28v17.32h-8.87c-2.54,0-4.61-2.44-4.61-4.98s2.07-4.98,4.61-4.98h3.46v-1.9h-3.46c-3.8,0-6.88,3.09-6.88,6.88,0,1.96,.83,3.73,2.15,4.98h-5.65c-1.55,0-2.81-1.26-2.81-2.81v-8.14h-2.28v12.81c0,1.84-1.7,3.42-3.3,3.96l.74,1.78c2.4-.82,4.84-3.19,4.84-6.12v-.44c.81,.54,1.77,.85,2.81,.85h21.53Z"/></g><path class="d" d="M86.86,31.82c-30.4,0-55.04,24.64-55.04,55.04v110.07h110.07V86.86c0-30.4-24.64-55.04-55.04-55.04Zm-3.93,70.97h47.31v19.73h-47.31v-19.73Zm47.31,82.49H43.48v-19.73h86.77v19.73Zm0-31.38H63.2v-19.73h67.04v19.73Z"/><g><path class="d" d="M249.06,102.8v18.19c0,6.23-4.2,6.42-5.46,6.42s-5.46-.18-5.46-6.42v-18.19h-7.62v18.19c0,10.49,7.19,13.64,13.08,13.64s13.08-3.15,13.08-13.64v-18.19h-7.62Z"/><path class="d" d="M175.38,102.35c-5.89,0-13.08,3.15-13.08,13.64v18.19h7.62v-8.73h10.92v8.73h7.62v-18.19c0-10.49-7.19-13.64-13.08-13.64Zm-5.46,16.48v-2.84c0-6.23,4.2-6.42,5.46-6.42s5.46,.18,5.46,6.42v2.84h-10.92Z"/><path class="d" d="M209.49,102.35c-8.99,0-15.91,6.71-15.91,16.14s6.93,16.14,15.91,16.14,15.91-6.71,15.91-16.14-6.93-16.14-15.91-16.14Zm0,25.18c-6,0-8.16-4.74-8.16-9.05s2.16-9.05,8.16-9.05,8.16,4.74,8.16,9.05-2.16,9.05-8.16,9.05Z"/></g></g></g><g id="b"><rect class="c" x="0" width="31.82" height="31.82"/><rect class="c" x="428.67" y="196.93" width="31.82" height="31.82"/><rect class="c" x="428.67" y="0" width="31.82" height="31.82" transform="translate(889.17 31.82) rotate(-180)"/><rect class="c" x="0" y="196.93" width="31.82" height="31.82" transform="translate(31.82 425.69) rotate(-180)"/></g></svg>